<?xml version="1.0" encoding="utf-8"?>
<!-- Generator: Adobe Illustrator 24.0.3, SVG Export Plug-In . SVG Version: 6.00 Build 0)  -->
<svg version="1.1" id="Layer_1" xmlns="http://www.w3.org/2000/svg" xmlns:xlink="http://www.w3.org/1999/xlink" x="0px" y="0px"
	 viewBox="0 0 240.94 99.21" style="enable-background:new 0 0 240.94 99.21;" xml:space="preserve">
<style type="text/css">
	.st0{fill:#EE1C4E;}
	.st1{fill:none;}
	.st2{fill:#4450A2;}
</style>
<g>
	<g>
		<path class="st0" d="M27.17,13.64v7.06h-1.28v-2.15c0-1.07,0.01-2.22,0.04-3.5c-0.16,0.53-0.32,1.01-0.53,1.63l-1.43,4.02h-1.1
			l-1.44-4.02c-0.21-0.6-0.37-1.08-0.53-1.61c0.03,1.27,0.04,2.42,0.04,3.48v2.15h-1.29v-7.06h1.94l1.22,3.43
			c0.21,0.63,0.43,1.33,0.6,1.91c0.18-0.61,0.41-1.35,0.62-1.98l1.18-3.36H27.17z"/>
		<path class="st0" d="M33.12,18.53h-3.83c0.09,0.91,0.6,1.32,1.33,1.32c0.59,0,0.98-0.28,1.17-0.73h1.2
			c-0.26,1.04-1.15,1.7-2.38,1.7c-1.51,0-2.55-1.04-2.55-2.68c0-1.61,1.01-2.68,2.53-2.68c1.57,0,2.53,1.14,2.53,2.76V18.53z
			 M29.3,17.65h2.57c-0.1-0.72-0.55-1.22-1.29-1.22C29.92,16.43,29.42,16.81,29.3,17.65z"/>
		<path class="st0" d="M35.37,16.53v2.77c0,0.34,0.17,0.45,0.58,0.45h0.43v0.95c-0.23,0.02-0.46,0.04-0.65,0.04
			c-1.08,0-1.6-0.37-1.6-1.31v-2.89h-0.79v-0.95h0.79V14.1h1.24v1.49h1.01v0.95H35.37z"/>
		<path class="st0" d="M40.49,20.7c-0.08-0.14-0.12-0.38-0.14-0.62c-0.34,0.48-0.89,0.74-1.65,0.74c-1.09,0-1.84-0.55-1.84-1.54
			c0-0.85,0.52-1.46,1.96-1.6l0.77-0.07c0.48-0.06,0.72-0.21,0.72-0.58c0-0.4-0.21-0.63-0.93-0.63c-0.71,0-1.01,0.19-1.06,0.81H37.1
			c0.07-1.08,0.7-1.74,2.3-1.74c1.53,0,2.13,0.61,2.13,1.54v2.73c0,0.37,0.07,0.77,0.21,0.97H40.49z M40.32,18.67v-0.47
			c-0.13,0.12-0.32,0.18-0.58,0.21l-0.67,0.08c-0.69,0.08-0.92,0.33-0.92,0.73c0,0.43,0.29,0.69,0.86,0.69
			C39.66,19.92,40.32,19.57,40.32,18.67z"/>
		<path class="st0" d="M47.33,15.58v4.95c0,1.35-0.86,2.23-2.53,2.23c-1.48,0-2.27-0.72-2.35-1.78h1.23
			c0.06,0.55,0.46,0.82,1.14,0.82c0.82,0,1.26-0.44,1.26-1.24v-0.64c-0.34,0.48-0.85,0.76-1.57,0.76c-1.39,0-2.31-1.05-2.31-2.61
			c0-1.57,0.9-2.61,2.3-2.61c0.74,0,1.28,0.31,1.62,0.82v-0.7H47.33z M46.11,18.07c0-1.02-0.51-1.58-1.32-1.58
			c-0.8,0-1.31,0.59-1.31,1.59s0.51,1.57,1.31,1.57C45.6,19.65,46.11,19.08,46.11,18.07z"/>
		<path class="st0" d="M53.22,18.53h-3.83c0.09,0.91,0.6,1.32,1.33,1.32c0.59,0,0.98-0.28,1.17-0.73h1.2
			c-0.26,1.04-1.15,1.7-2.38,1.7c-1.51,0-2.55-1.04-2.55-2.68c0-1.61,1.01-2.68,2.53-2.68c1.57,0,2.53,1.14,2.53,2.76V18.53z
			 M49.4,17.65h2.57c-0.1-0.72-0.55-1.22-1.29-1.22C50.02,16.43,49.52,16.81,49.4,17.65z"/>
		<path class="st0" d="M58.67,17.31v3.39h-1.25v-3.18c0-0.65-0.33-0.97-0.96-0.97c-0.55,0-1.14,0.38-1.14,1.29v2.86h-1.25v-5.11
			h1.21v0.73c0.33-0.49,0.87-0.85,1.6-0.85C57.95,15.46,58.67,16.09,58.67,17.31z"/>
		<path class="st0" d="M59.51,18.14c0-1.63,1.05-2.68,2.61-2.68c1.56,0,2.6,1.05,2.6,2.68c0,1.63-1.04,2.68-2.6,2.68
			C60.56,20.82,59.51,19.76,59.51,18.14z M63.44,18.14c0-1.08-0.53-1.65-1.33-1.65c-0.81,0-1.33,0.57-1.33,1.65
			c0,1.08,0.52,1.65,1.33,1.65C62.91,19.78,63.44,19.22,63.44,18.14z"/>
		<path class="st0" d="M73.17,17.32v3.38h-1.25v-3.18c0-0.65-0.29-0.97-0.88-0.97c-0.55,0-1.06,0.38-1.06,1.34v2.81h-1.24v-3.18
			c0-0.65-0.3-0.97-0.89-0.97c-0.53,0-1.05,0.38-1.05,1.34v2.81h-1.25v-5.11h1.21v0.73c0.31-0.5,0.78-0.85,1.46-0.85
			c0.78,0,1.33,0.37,1.59,0.95c0.34-0.54,0.87-0.95,1.59-0.95C72.52,15.46,73.17,16.19,73.17,17.32z"/>
		<path class="st0" d="M74.23,15.58h1.25v5.11h-1.25V15.58z M74.24,13.75h1.23v1.17h-1.23V13.75z"/>
		<path class="st0" d="M76.31,18.14c0-1.64,1-2.68,2.53-2.68c1.34,0,2.23,0.76,2.38,1.96h-1.25c-0.12-0.63-0.57-0.92-1.13-0.92
			c-0.74,0-1.25,0.52-1.25,1.64c0,1.12,0.52,1.64,1.25,1.64c0.56,0,1.05-0.31,1.15-0.98h1.25c-0.14,1.25-1.09,2.02-2.4,2.02
			C77.32,20.82,76.31,19.77,76.31,18.14z"/>
		<path class="st0" d="M30.15,32.03h-3.09l-0.55,1.56h-1.38l2.69-7.06h1.57l2.74,7.06h-1.42L30.15,32.03z M29.75,30.89l-0.28-0.76
			c-0.25-0.64-0.58-1.59-0.87-2.42c-0.29,0.83-0.62,1.77-0.86,2.42l-0.27,0.76H29.75z"/>
		<path class="st0" d="M32.42,31.96h1.22c0.07,0.64,0.4,0.87,1.14,0.87c0.72,0,1.01-0.23,1.01-0.61c0-0.37-0.23-0.54-1-0.67
			l-0.58-0.1c-1.1-0.19-1.67-0.67-1.67-1.55c0-0.96,0.75-1.55,2.12-1.55c1.58,0,2.22,0.68,2.26,1.73h-1.18
			c-0.03-0.65-0.44-0.84-1.08-0.84c-0.6,0-0.89,0.23-0.89,0.59c0,0.38,0.3,0.53,0.85,0.62l0.64,0.1c1.23,0.22,1.77,0.67,1.77,1.56
			c0,1.03-0.84,1.61-2.27,1.61C33.3,33.73,32.5,33.2,32.42,31.96z"/>
		<path class="st0" d="M37.55,31.96h1.22c0.07,0.64,0.4,0.87,1.14,0.87c0.72,0,1.01-0.23,1.01-0.61c0-0.37-0.23-0.54-1-0.67
			l-0.58-0.1c-1.1-0.19-1.67-0.67-1.67-1.55c0-0.96,0.75-1.55,2.12-1.55c1.58,0,2.22,0.68,2.26,1.73h-1.18
			c-0.03-0.65-0.44-0.84-1.08-0.84c-0.6,0-0.89,0.23-0.89,0.59c0,0.38,0.3,0.53,0.85,0.62l0.64,0.1c1.23,0.22,1.77,0.67,1.77,1.56
			c0,1.03-0.84,1.61-2.27,1.61C38.44,33.73,37.63,33.2,37.55,31.96z"/>
		<path class="st0" d="M47.7,31.42h-3.83c0.09,0.91,0.6,1.32,1.33,1.32c0.59,0,0.98-0.28,1.17-0.73h1.2
			c-0.26,1.04-1.15,1.7-2.38,1.7c-1.51,0-2.55-1.04-2.55-2.68c0-1.61,1.01-2.68,2.53-2.68c1.57,0,2.53,1.14,2.53,2.76V31.42z
			 M43.89,30.54h2.57c-0.1-0.72-0.55-1.22-1.29-1.22C44.5,29.33,44.01,29.7,43.89,30.54z"/>
		<path class="st0" d="M56.18,30.21v3.38h-1.25v-3.18c0-0.65-0.29-0.97-0.88-0.97c-0.55,0-1.06,0.38-1.06,1.34v2.81h-1.24v-3.18
			c0-0.65-0.3-0.97-0.89-0.97c-0.53,0-1.05,0.38-1.05,1.34v2.81h-1.25v-5.11h1.21v0.73c0.31-0.5,0.78-0.85,1.46-0.85
			c0.78,0,1.33,0.37,1.59,0.95c0.34-0.54,0.87-0.95,1.59-0.95C55.54,28.35,56.18,29.08,56.18,30.21z"/>
		<path class="st0" d="M62.37,31.03c0,1.63-0.88,2.68-2.29,2.68c-0.74,0-1.29-0.32-1.64-0.85v0.73h-1.2v-7.06h1.25v2.61
			c0.35-0.5,0.87-0.78,1.59-0.78C61.49,28.35,62.37,29.4,62.37,31.03z M61.1,30.99c0-1.08-0.51-1.61-1.32-1.61
			c-0.81,0-1.32,0.57-1.32,1.65s0.5,1.65,1.32,1.65C60.59,32.67,61.1,32.07,61.1,30.99z"/>
		<path class="st0" d="M63.2,26.53h1.25v7.06H63.2V26.53z"/>
		<path class="st0" d="M70.08,28.47L68.11,34c-0.41,1.14-0.96,1.54-2.2,1.54c-0.24,0-0.39-0.01-0.54-0.03v-0.98h0.48
			c0.61,0,0.84-0.4,0.84-0.82c0-0.31-0.12-0.69-0.24-1.03l-1.49-4.2h1.35l0.42,1.28c0.28,0.89,0.55,1.85,0.81,2.85
			c0.27-1.01,0.55-1.94,0.82-2.84l0.42-1.29H70.08z"/>
		<path class="st0" d="M72.62,31.03c0-1.63,1.05-2.68,2.61-2.68c1.56,0,2.6,1.05,2.6,2.68s-1.04,2.68-2.6,2.68
			C73.67,33.71,72.62,32.66,72.62,31.03z M76.56,31.03c0-1.08-0.53-1.65-1.33-1.65c-0.81,0-1.33,0.57-1.33,1.65s0.52,1.65,1.33,1.65
			C76.03,32.67,76.56,32.11,76.56,31.03z"/>
		<path class="st0" d="M80.12,28.11v0.37h1.05v0.95h-1.05v4.16h-1.24v-4.16h-0.79v-0.95h0.79v-0.39c0-0.9,0.45-1.59,1.67-1.59
			c0.2,0,0.47,0.01,0.64,0.03v0.96h-0.44C80.32,27.49,80.12,27.71,80.12,28.11z"/>
		<path class="st0" d="M45.15,42.95l-2.67,3.53H40.9l1.24-1.64c0.37-0.5,0.68-0.9,1.02-1.31h-6.87v-1.18h6.86
			c-0.34-0.41-0.65-0.81-1.01-1.3l-1.24-1.64h1.59L45.15,42.95z"/>
		<path class="st0" d="M51.41,44.92h-3.09l-0.55,1.56H46.4l2.69-7.06h1.57l2.74,7.06h-1.42L51.41,44.92z M51.01,43.78l-0.28-0.76
			c-0.25-0.64-0.58-1.59-0.87-2.42c-0.29,0.83-0.62,1.77-0.86,2.42l-0.27,0.76H51.01z"/>
		<path class="st0" d="M58.55,43.09v3.39H57.3V43.3c0-0.65-0.33-0.97-0.96-0.97c-0.55,0-1.14,0.38-1.14,1.29v2.86h-1.25v-5.11h1.21
			v0.73c0.33-0.49,0.87-0.85,1.6-0.85C57.83,41.24,58.55,41.87,58.55,43.09z"/>
		<path class="st0" d="M59.39,43.92c0-1.64,1-2.68,2.53-2.68c1.34,0,2.23,0.76,2.38,1.96h-1.25c-0.12-0.63-0.57-0.92-1.13-0.92
			c-0.74,0-1.25,0.52-1.25,1.64c0,1.12,0.52,1.64,1.25,1.64c0.56,0,1.05-0.31,1.15-0.98h1.25c-0.14,1.25-1.09,2.02-2.4,2.02
			C60.4,46.6,59.39,45.56,59.39,43.92z"/>
		<path class="st0" d="M65.05,41.36h1.25v5.11h-1.25V41.36z M65.06,39.53h1.23v1.17h-1.23V39.53z"/>
		<path class="st0" d="M72.19,44.31h-3.83c0.09,0.91,0.6,1.32,1.33,1.32c0.59,0,0.98-0.28,1.17-0.73h1.2
			c-0.26,1.04-1.15,1.7-2.38,1.7c-1.51,0-2.55-1.04-2.55-2.68c0-1.61,1.01-2.68,2.53-2.68c1.57,0,2.53,1.14,2.53,2.76V44.31z
			 M68.37,43.43h2.57c-0.1-0.72-0.55-1.22-1.29-1.22C68.98,42.22,68.49,42.59,68.37,43.43z"/>
		<path class="st0" d="M77.64,43.09v3.39h-1.25V43.3c0-0.65-0.33-0.97-0.96-0.97c-0.55,0-1.14,0.38-1.14,1.29v2.86h-1.25v-5.11h1.21
			v0.73c0.33-0.49,0.87-0.85,1.6-0.85C76.92,41.24,77.64,41.87,77.64,43.09z"/>
		<path class="st0" d="M80.18,42.31v2.77c0,0.34,0.17,0.45,0.58,0.45h0.43v0.95c-0.23,0.02-0.46,0.04-0.65,0.04
			c-1.08,0-1.6-0.37-1.6-1.31v-2.89h-0.79v-0.95h0.79v-1.49h1.24v1.49h1.01v0.95H80.18z"/>
		<path class="st0" d="M15.8,55.84c0,2.15-1.24,3.53-3.54,3.53h-2.7v-7.06h2.7C14.57,52.31,15.8,53.69,15.8,55.84z M14.42,55.84
			c0-1.57-0.8-2.38-2.17-2.38h-1.34v4.76h1.34C13.61,58.22,14.42,57.41,14.42,55.84z"/>
		<path class="st0" d="M19.92,59.37c-0.08-0.14-0.12-0.38-0.14-0.62c-0.34,0.48-0.89,0.74-1.65,0.74c-1.09,0-1.84-0.55-1.84-1.54
			c0-0.85,0.52-1.46,1.96-1.6l0.77-0.07c0.48-0.06,0.72-0.21,0.72-0.58c0-0.4-0.21-0.63-0.93-0.63c-0.71,0-1.01,0.19-1.06,0.81
			h-1.23c0.07-1.08,0.7-1.74,2.3-1.74c1.53,0,2.13,0.61,2.13,1.54v2.73c0,0.37,0.07,0.77,0.21,0.97H19.92z M19.75,57.35v-0.47
			c-0.13,0.12-0.32,0.18-0.58,0.21l-0.67,0.08c-0.69,0.08-0.92,0.33-0.92,0.73c0,0.43,0.29,0.69,0.86,0.69
			C19.1,58.59,19.75,58.24,19.75,57.35z"/>
		<path class="st0" d="M29.55,52.31v7.06h-1.28v-2.15c0-1.07,0.01-2.22,0.04-3.5c-0.16,0.53-0.32,1.01-0.53,1.63l-1.43,4.02h-1.1
			l-1.44-4.02c-0.21-0.6-0.37-1.08-0.53-1.61c0.03,1.27,0.04,2.42,0.04,3.48v2.15h-1.29v-7.06h1.94l1.22,3.43
			c0.21,0.63,0.43,1.33,0.6,1.91c0.18-0.61,0.41-1.35,0.62-1.98l1.18-3.36H29.55z"/>
		<path class="st0" d="M33.97,59.37c-0.08-0.14-0.12-0.38-0.14-0.62c-0.34,0.48-0.89,0.74-1.65,0.74c-1.09,0-1.84-0.55-1.84-1.54
			c0-0.85,0.52-1.46,1.96-1.6l0.77-0.07c0.48-0.06,0.72-0.21,0.72-0.58c0-0.4-0.21-0.63-0.93-0.63c-0.71,0-1.01,0.19-1.06,0.81
			h-1.23c0.07-1.08,0.7-1.74,2.3-1.74c1.53,0,2.13,0.61,2.13,1.54v2.73c0,0.37,0.07,0.77,0.21,0.97H33.97z M33.8,57.35v-0.47
			c-0.13,0.12-0.32,0.18-0.58,0.21l-0.67,0.08c-0.69,0.08-0.92,0.33-0.92,0.73c0,0.43,0.29,0.69,0.86,0.69
			C33.15,58.59,33.8,58.24,33.8,57.35z"/>
		<path class="st0" d="M40.81,54.25v4.95c0,1.35-0.86,2.23-2.53,2.23c-1.48,0-2.27-0.72-2.35-1.78h1.23
			c0.06,0.55,0.46,0.82,1.14,0.82c0.82,0,1.26-0.44,1.26-1.24v-0.64c-0.34,0.48-0.85,0.76-1.57,0.76c-1.39,0-2.31-1.05-2.31-2.61
			c0-1.57,0.9-2.61,2.3-2.61c0.74,0,1.28,0.31,1.62,0.82v-0.7H40.81z M39.59,56.74c0-1.02-0.51-1.58-1.32-1.58
			c-0.8,0-1.31,0.59-1.31,1.59s0.51,1.57,1.31,1.57C39.09,58.32,39.59,57.75,39.59,56.74z"/>
		<path class="st0" d="M46.7,57.2h-3.83c0.09,0.91,0.6,1.32,1.33,1.32c0.59,0,0.98-0.28,1.17-0.73h1.2c-0.26,1.04-1.15,1.7-2.38,1.7
			c-1.51,0-2.55-1.04-2.55-2.68c0-1.61,1.01-2.68,2.53-2.68c1.57,0,2.53,1.14,2.53,2.76V57.2z M42.89,56.32h2.57
			c-0.1-0.72-0.55-1.22-1.29-1.22C43.5,55.11,43.01,55.48,42.89,56.32z"/>
		<path class="st0" d="M52.45,52.31v7.06h-1.21v-0.71c-0.35,0.52-0.88,0.83-1.62,0.83c-1.42,0-2.3-1.05-2.3-2.68s0.88-2.68,2.3-2.68
			c0.7,0,1.23,0.29,1.58,0.78v-2.61H52.45z M51.23,56.81c0-1.08-0.51-1.65-1.32-1.65c-0.8,0-1.31,0.6-1.31,1.68
			c0,1.08,0.51,1.61,1.31,1.61C50.73,58.46,51.23,57.89,51.23,56.81z"/>
		<path class="st0" d="M59.54,54.19v1.15h-0.32c-0.92,0-1.48,0.46-1.48,1.43v2.6H56.5v-5.11h1.21v0.91
			c0.25-0.57,0.73-0.99,1.53-0.99C59.35,54.17,59.43,54.17,59.54,54.19z"/>
		<path class="st0" d="M64.87,57.2h-3.83c0.09,0.91,0.6,1.32,1.33,1.32c0.59,0,0.98-0.28,1.17-0.73h1.2
			c-0.26,1.04-1.15,1.7-2.38,1.7c-1.51,0-2.55-1.04-2.55-2.68c0-1.61,1.01-2.68,2.53-2.68c1.57,0,2.53,1.14,2.53,2.76V57.2z
			 M61.05,56.32h2.57c-0.1-0.72-0.55-1.22-1.29-1.22C61.67,55.11,61.17,55.48,61.05,56.32z"/>
		<path class="st0" d="M69.02,59.37c-0.08-0.14-0.12-0.38-0.14-0.62c-0.34,0.48-0.89,0.74-1.65,0.74c-1.09,0-1.84-0.55-1.84-1.54
			c0-0.85,0.52-1.46,1.96-1.6l0.77-0.07c0.48-0.06,0.72-0.21,0.72-0.58c0-0.4-0.21-0.63-0.93-0.63c-0.71,0-1.01,0.19-1.06,0.81
			h-1.23c0.07-1.08,0.7-1.74,2.3-1.74c1.53,0,2.13,0.61,2.13,1.54v2.73c0,0.37,0.07,0.77,0.21,0.97H69.02z M68.85,57.35v-0.47
			c-0.13,0.12-0.32,0.18-0.58,0.21l-0.67,0.08c-0.69,0.08-0.92,0.33-0.92,0.73c0,0.43,0.29,0.69,0.86,0.69
			C68.2,58.59,68.85,58.24,68.85,57.35z"/>
		<path class="st0" d="M75.91,52.31v7.06H74.7v-0.71c-0.35,0.52-0.88,0.83-1.62,0.83c-1.42,0-2.3-1.05-2.3-2.68s0.88-2.68,2.3-2.68
			c0.7,0,1.23,0.29,1.58,0.78v-2.61H75.91z M74.69,56.81c0-1.08-0.51-1.65-1.32-1.65c-0.8,0-1.31,0.6-1.31,1.68
			c0,1.08,0.5,1.61,1.31,1.61C74.19,58.46,74.69,57.89,74.69,56.81z"/>
		<path class="st0" d="M76.65,57.74h1.22c0.07,0.64,0.4,0.87,1.14,0.87c0.72,0,1.01-0.23,1.01-0.61c0-0.37-0.23-0.54-1-0.67
			l-0.58-0.1c-1.1-0.19-1.67-0.67-1.67-1.55c0-0.96,0.75-1.55,2.12-1.55c1.58,0,2.22,0.68,2.26,1.73h-1.18
			c-0.03-0.65-0.44-0.84-1.08-0.84c-0.6,0-0.89,0.23-0.89,0.59c0,0.38,0.3,0.53,0.85,0.62l0.64,0.1c1.23,0.22,1.77,0.67,1.77,1.56
			c0,1.03-0.84,1.61-2.27,1.61C77.53,59.51,76.73,58.98,76.65,57.74z"/>
		<path class="st0" d="M26.46,67.14l-1.68,5.11h-1.31l-0.64-2.1c-0.15-0.51-0.3-1.02-0.44-1.53c-0.14,0.51-0.28,1.02-0.43,1.53
			l-0.63,2.1h-1.31l-1.68-5.11h1.34l0.57,1.91c0.18,0.58,0.35,1.19,0.51,1.77c0.15-0.6,0.31-1.19,0.49-1.78l0.56-1.9h1.19l0.56,1.9
			c0.18,0.59,0.34,1.19,0.49,1.78c0.16-0.58,0.33-1.19,0.51-1.77l0.58-1.91H26.46z"/>
		<path class="st0" d="M27,67.14h1.25v5.11H27V67.14z M27.01,65.31h1.23v1.17h-1.23V65.31z"/>
		<path class="st0" d="M30.97,68.1v2.77c0,0.34,0.17,0.45,0.58,0.45h0.43v0.95c-0.23,0.02-0.46,0.04-0.65,0.04
			c-1.08,0-1.6-0.37-1.6-1.31V68.1h-0.79v-0.95h0.79v-1.49h1.24v1.49h1.01v0.95H30.97z"/>
		<path class="st0" d="M37.36,68.87v3.39h-1.25v-3.18c0-0.65-0.33-0.97-0.96-0.97c-0.55,0-1.14,0.38-1.14,1.29v2.86h-1.25V65.2h1.25
			v2.63c0.34-0.47,0.86-0.8,1.56-0.8C36.64,67.03,37.36,67.65,37.36,68.87z"/>
		<path class="st0" d="M47.44,65.2v7.06h-1.49l-1.96-3.14c-0.45-0.7-0.9-1.44-1.26-2.12c0.04,1.25,0.04,2.38,0.04,3.42v1.84h-1.29
			V65.2h1.49l1.97,3.14c0.4,0.64,0.89,1.46,1.25,2.12c-0.03-1.25-0.04-2.38-0.04-3.42V65.2H47.44z"/>
		<path class="st0" d="M53.39,70.09h-3.83c0.09,0.91,0.6,1.32,1.33,1.32c0.59,0,0.98-0.28,1.17-0.73h1.2
			c-0.26,1.04-1.15,1.7-2.38,1.7c-1.51,0-2.55-1.04-2.55-2.68c0-1.61,1.01-2.68,2.53-2.68c1.57,0,2.53,1.14,2.53,2.76V70.09z
			 M49.57,69.22h2.57c-0.1-0.72-0.55-1.22-1.29-1.22C50.18,68,49.69,68.37,49.57,69.22z"/>
		<path class="st0" d="M58.52,72.26h-1.43l-0.19-0.27c-0.34-0.49-0.66-0.97-0.99-1.45c-0.33,0.48-0.66,0.97-1,1.45l-0.19,0.27h-1.4
			l1.9-2.62l-1.8-2.5h1.43l0.27,0.38c0.29,0.41,0.55,0.8,0.82,1.21c0.26-0.4,0.55-0.81,0.81-1.21l0.27-0.38h1.4l-1.8,2.49
			L58.52,72.26z"/>
		<path class="st0" d="M60.73,68.1v2.77c0,0.34,0.17,0.45,0.58,0.45h0.43v0.95c-0.23,0.02-0.46,0.04-0.65,0.04
			c-1.08,0-1.6-0.37-1.6-1.31V68.1H58.7v-0.95h0.79v-1.49h1.24v1.49h1.01v0.95H60.73z"/>
		<path class="st0" d="M64.62,65.17c0.2,0,0.47,0.01,0.64,0.03v0.96h-0.44c-0.45,0-0.64,0.22-0.64,0.61v0.37h1.05v0.95h-1.05v4.16
			h-1.24V68.1h-0.79v-0.95h0.79v-0.39C62.95,65.86,63.39,65.17,64.62,65.17z M67.11,65.2v7.06h-1.25V65.2H67.11z"/>
		<path class="st0" d="M67.95,69.7c0-1.63,1.05-2.68,2.61-2.68c1.56,0,2.6,1.05,2.6,2.68s-1.04,2.68-2.6,2.68
			C69,72.38,67.95,71.33,67.95,69.7z M71.89,69.7c0-1.08-0.53-1.65-1.33-1.65c-0.81,0-1.33,0.57-1.33,1.65s0.52,1.65,1.33,1.65
			C71.36,71.35,71.89,70.78,71.89,69.7z"/>
		<path class="st0" d="M81.39,67.14l-1.68,5.11h-1.31l-0.64-2.1c-0.15-0.51-0.3-1.02-0.44-1.53c-0.14,0.51-0.28,1.02-0.43,1.53
			l-0.63,2.1h-1.31l-1.68-5.11h1.34l0.57,1.91c0.18,0.58,0.35,1.19,0.51,1.77c0.15-0.6,0.31-1.19,0.49-1.78l0.56-1.9h1.19l0.56,1.9
			c0.18,0.59,0.34,1.19,0.49,1.78c0.16-0.58,0.33-1.19,0.51-1.77l0.58-1.91H81.39z"/>
	</g>
	<g>
		<path class="st1" d="M138.19,59.37c-0.6-0.79-0.96-1.7-1.09-2.62c-0.09-0.61-0.52-1.11-1.11-1.28l-4.52-1.27
			c-0.52-0.15-1.07,0.01-1.47,0.38c-0.21,0.19-0.45,0.37-0.71,0.52c-1.62,0.94-3.73,0.61-4.99-0.78c-1.77-1.95-1.25-5.05,1.12-6.3
			c1.46-0.77,3.29-0.55,4.52,0.55c0.64,0.58,1.05,1.28,1.24,2.03c0.11,0.45,0.46,0.8,0.91,0.92l4.76,1.33
			c0.52,0.15,1.08-0.03,1.41-0.45c0.3-0.37,0.64-0.72,1.04-1.02c0.19-0.14,0.38-0.27,0.58-0.38c0.77-0.44,1.19-1.3,1.15-2.18
			l-0.16-3.43c-0.05-1.05-0.76-1.94-1.77-2.27c-1.83-0.6-3.49-1.82-4.61-3.63c-2.14-3.44-1.52-8.01,1.45-10.75
			c2.73-2.52,6.54-2.9,9.58-1.41c-2.57-3.49-6.05-6.28-10.09-7.98c-0.18,2.77-1.51,5.46-3.9,7.26c-4.35,3.28-10.54,2.42-13.82-1.93
			c-1.13-1.49-1.75-3.21-1.93-4.94c-2.95,1.38-5.57,3.34-7.72,5.73c2.13-0.5,4.44,0.26,5.85,2.12c0.6,0.79,0.96,1.7,1.09,2.62
			c0.09,0.61,0.52,1.11,1.11,1.28l4.52,1.27c0.51,0.14,1.05,0.01,1.44-0.35c0.21-0.19,0.44-0.37,0.7-0.52
			c1.6-0.95,3.71-0.65,4.98,0.7c1.12,1.2,1.36,2.85,0.82,4.23c-0.21,0.54-0.14,1.16,0.24,1.6l3.52,4.18
			c0.27,0.32,0.67,0.49,1.08,0.45c0.96-0.1,1.95,0.3,2.57,1.12c0.93,1.23,0.69,3.06-0.53,4c-1.27,0.99-3.09,0.74-4.06-0.54
			c-0.52-0.69-0.68-1.53-0.52-2.31c0.11-0.52,0.01-1.06-0.34-1.47l-3.35-3.98c-0.41-0.49-1.05-0.68-1.67-0.57
			c-1.19,0.21-2.45-0.11-3.37-0.94c-0.64-0.57-1.05-1.28-1.24-2.02c-0.12-0.45-0.46-0.8-0.91-0.93l-4.76-1.33
			c-0.52-0.15-1.08,0.03-1.41,0.45c-0.3,0.37-0.64,0.72-1.04,1.02c-0.17,0.13-0.35,0.25-0.53,0.36c-0.78,0.46-1.24,1.31-1.18,2.6
			l0.14,3.03c0.05,1.05,0.76,1.94,1.77,2.27c1.83,0.6,3.49,1.82,4.61,3.63c2.14,3.44,1.52,8.01-1.45,10.75
			c-1.52,1.4-3.37,2.14-5.24,2.26c3,2.41,6.58,4.12,10.5,4.88c-0.43-2.11,0.33-4.39,2.17-5.77c2.54-1.92,6.16-1.41,8.08,1.13
			c0.93,1.23,1.28,2.71,1.12,4.13c2.76-0.8,5.32-2.08,7.58-3.74C139.53,60.74,138.77,60.15,138.19,59.37z M121.62,44.75
			c-1.31,0.99-3.17,0.73-4.15-0.58c-0.99-1.31-0.73-3.17,0.58-4.15s3.17-0.73,4.15,0.58C123.19,41.91,122.93,43.77,121.62,44.75z"/>
		<path class="st1" d="M107.04,44.06c0.91-0.38,1.48-1.29,1.44-2.28c-0.05-1.16-0.12-2.64-0.17-3.72c-0.04-0.79-0.5-1.51-1.23-1.82
			c-1.12-0.48-2.1-1.33-2.75-2.53c-0.27-0.49-0.44-1.01-0.55-1.54c-1.24,2.91-1.92,6.1-1.92,9.46c0,2.22,0.3,4.36,0.86,6.4
			c0.41-0.8,0.95-1.55,1.62-2.2C105.16,45.05,106.07,44.46,107.04,44.06z"/>
		<path class="st1" d="M147.37,41.47c-0.71,0.62-1.5,1.09-2.31,1.43c-0.91,0.38-1.49,1.29-1.44,2.28c0.05,1.16,0.12,2.64,0.17,3.72
			c0.04,0.79,0.5,1.51,1.23,1.82c0.92,0.4,1.74,1.04,2.37,1.92c0.04,0.05,0.06,0.11,0.1,0.17c1.75-3.34,2.74-7.14,2.74-11.17
			c0-1.36-0.12-2.69-0.33-3.98C149.42,39.1,148.58,40.43,147.37,41.47z"/>
		<path class="st2" d="M145.02,50.72c-0.73-0.31-1.19-1.03-1.23-1.82c-0.05-1.08-0.12-2.56-0.17-3.72c-0.05-0.99,0.53-1.9,1.44-2.28
			c0.82-0.34,1.6-0.82,2.31-1.43c1.21-1.04,2.05-2.37,2.51-3.81c-0.63-3.81-2.16-7.33-4.35-10.32c-3.04-1.49-6.85-1.11-9.58,1.41
			c-2.97,2.75-3.59,7.32-1.45,10.75c1.12,1.8,2.77,3.03,4.61,3.63c1,0.33,1.72,1.22,1.77,2.27l0.16,3.43
			c0.04,0.88-0.39,1.74-1.15,2.18c-0.2,0.11-0.39,0.24-0.58,0.38c-0.4,0.3-0.75,0.64-1.04,1.02c-0.33,0.42-0.89,0.6-1.41,0.45
			l-4.76-1.33c-0.45-0.12-0.8-0.47-0.91-0.92c-0.19-0.74-0.6-1.45-1.24-2.03c-1.23-1.1-3.06-1.32-4.52-0.55
			c-2.38,1.25-2.89,4.35-1.12,6.3c1.26,1.39,3.37,1.72,4.99,0.78c0.26-0.15,0.5-0.33,0.71-0.52c0.4-0.36,0.95-0.52,1.47-0.38
			l4.52,1.27c0.59,0.17,1.02,0.67,1.11,1.28c0.13,0.92,0.49,1.82,1.09,2.62c0.59,0.78,1.34,1.36,2.17,1.74
			c2.96-2.18,5.41-5.02,7.12-8.31c-0.04-0.05-0.06-0.11-0.1-0.17C146.76,51.76,145.93,51.12,145.02,50.72z"/>
		<path class="st0" d="M117.6,47.46c-1.12-1.81-2.77-3.03-4.61-3.63c-1-0.33-1.72-1.21-1.77-2.27l-0.14-3.03
			c-0.06-1.3,0.4-2.15,1.18-2.6c0.18-0.11,0.36-0.23,0.53-0.36c0.4-0.3,0.75-0.64,1.04-1.02c0.33-0.42,0.9-0.6,1.41-0.45l4.76,1.33
			c0.45,0.13,0.8,0.48,0.91,0.93c0.19,0.74,0.6,1.45,1.24,2.02c0.92,0.83,2.18,1.15,3.37,0.94c0.63-0.11,1.27,0.08,1.67,0.57
			l3.35,3.98c0.34,0.41,0.44,0.95,0.34,1.47c-0.16,0.78,0,1.62,0.52,2.31c0.96,1.28,2.79,1.52,4.06,0.54c1.22-0.95,1.46-2.77,0.53-4
			c-0.63-0.83-1.61-1.22-2.57-1.12c-0.41,0.04-0.82-0.14-1.08-0.45l-3.52-4.18c-0.38-0.45-0.45-1.06-0.24-1.6
			c0.54-1.39,0.3-3.04-0.82-4.23c-1.27-1.35-3.38-1.65-4.98-0.7c-0.26,0.15-0.49,0.33-0.7,0.52c-0.39,0.36-0.93,0.49-1.44,0.35
			l-4.52-1.27c-0.59-0.17-1.02-0.67-1.11-1.28c-0.13-0.92-0.49-1.82-1.09-2.62c-1.4-1.86-3.72-2.61-5.85-2.12
			c-1.77,1.97-3.22,4.23-4.28,6.7c0.11,0.53,0.28,1.05,0.55,1.54c0.65,1.19,1.63,2.04,2.75,2.53c0.72,0.31,1.19,1.03,1.23,1.82
			c0.05,1.08,0.12,2.56,0.17,3.72c0.05,0.99-0.53,1.9-1.44,2.28c-0.96,0.4-1.88,0.99-2.69,1.77c-0.67,0.65-1.21,1.4-1.62,2.2
			c1.36,4.97,4.27,9.3,8.18,12.45c1.87-0.13,3.72-0.86,5.24-2.26C119.12,55.47,119.73,50.9,117.6,47.46z"/>
		<path class="st0" d="M118.05,40.02c-1.31,0.99-1.57,2.84-0.58,4.15c0.99,1.31,2.84,1.57,4.15,0.58c1.31-0.99,1.57-2.84,0.58-4.15
			C121.22,39.3,119.36,39.04,118.05,40.02z"/>
		<path class="st2" d="M131.54,26.62c2.39-1.81,3.72-4.49,3.9-7.26c-2.89-1.22-6.06-1.9-9.4-1.9c-3.67,0-7.14,0.82-10.25,2.28
			c0.18,1.74,0.8,3.45,1.93,4.94C121,29.03,127.19,29.9,131.54,26.62z"/>
		<path class="st0" d="M131.65,60.72c-1.92-2.54-5.54-3.05-8.08-1.13c-1.84,1.39-2.6,3.66-2.17,5.77c1.5,0.29,3.05,0.45,4.64,0.45
			c2.34,0,4.59-0.34,6.73-0.96C132.94,63.44,132.58,61.95,131.65,60.72z"/>
	</g>
	<g>
		<g>
			<path class="st2" d="M188.16,51.65v13.36c0,0.45-0.36,0.81-0.81,0.81h-2.52c-0.45,0-0.81-0.36-0.81-0.81V52.18
				c0-3.03-1.43-4.38-4.05-4.38c-2.5,0-4.95,1.84-4.95,6.43v10.78c0,0.45-0.36,0.81-0.81,0.81h-2.48c-0.45,0-0.81-0.36-0.81-0.81
				V52.18c0-3.03-1.47-4.38-4.09-4.38c-2.42,0-4.95,1.84-4.95,6.43v10.78c0,0.45-0.36,0.81-0.81,0.81h-2.48
				c-0.45,0-0.81-0.36-0.81-0.81V45.49c0-0.45,0.36-0.81,0.81-0.81h2.32c0.45,0,0.81,0.36,0.81,0.81v0c0,0.72,0.86,1.07,1.37,0.57
				c1.19-1.16,2.74-1.86,4.73-1.86c2.76,0,4.73,1.11,5.9,2.85c0.32,0.47,0.97,0.5,1.32,0.05c1.36-1.75,3.29-2.91,5.84-2.91
				C185.67,44.19,188.16,47.31,188.16,51.65z"/>
		</g>
		<g>
			<path class="st2" d="M211.26,62.66v2.42c0,0.42-0.32,0.77-0.74,0.81c-0.42,0.03-0.86,0.05-1.26,0.05c-1.97,0-3.12-0.53-3.7-1.66
				c-0.25-0.48-0.87-0.64-1.25-0.25c-1.45,1.5-3.5,2.27-6.02,2.27c-4.54,0-7.53-2.21-7.53-6.26c0-3.4,2.05-5.98,7.94-6.55l3.11-0.33
				c2.05-0.25,3.15-0.94,3.15-2.66c0-1.97-1.02-3.03-4.34-3.03c-3.05,0-4.47,0.8-4.84,3.15c-0.06,0.38-0.4,0.66-0.79,0.66h-2.44
				c-0.49,0-0.87-0.44-0.8-0.93c0.53-3.73,3-6.15,8.88-6.15c6.06,0,8.35,2.54,8.35,6.22V61.6c0,0.66,0.33,1.06,1.15,1.06H211.26z
				 M204.95,57.46v-0.9c0-0.56-0.55-0.93-1.09-0.75c-0.44,0.14-0.95,0.24-1.53,0.3l-2.95,0.33c-3.4,0.41-4.42,1.6-4.42,3.48
				c0,1.92,1.27,3.19,3.93,3.19C201.88,63.11,204.95,61.43,204.95,57.46z"/>
		</g>
		<g>
			<path class="st2" d="M231.94,51.65v13.36c0,0.45-0.36,0.81-0.81,0.81h-2.48c-0.45,0-0.81-0.36-0.81-0.81V52.22
				c0-3.03-1.6-4.42-4.46-4.42c-2.5,0-5.32,1.84-5.32,6.1v11.11c0,0.45-0.36,0.81-0.81,0.81h-2.48c-0.45,0-0.81-0.36-0.81-0.81
				V45.49c0-0.45,0.36-0.81,0.81-0.81h2.32c0.45,0,0.81,0.36,0.81,0.81v0.17c0,0.7,0.83,1.07,1.34,0.6
				c1.35-1.25,3.12-2.06,5.29-2.06C229.11,44.19,231.94,46.81,231.94,51.65z"/>
		</g>
		<g>
			<path class="st0" d="M188.16,25.15v13.36c0,0.45-0.36,0.81-0.81,0.81h-2.52c-0.45,0-0.81-0.36-0.81-0.81V25.68
				c0-3.03-1.43-4.38-4.05-4.38c-2.5,0-4.95,1.84-4.95,6.43v10.78c0,0.45-0.36,0.81-0.81,0.81h-2.48c-0.45,0-0.81-0.36-0.81-0.81
				V25.68c0-3.03-1.47-4.38-4.09-4.38c-2.42,0-4.95,1.84-4.95,6.43v10.78c0,0.45-0.36,0.81-0.81,0.81h-2.48
				c-0.45,0-0.81-0.36-0.81-0.81V18.99c0-0.45,0.36-0.81,0.81-0.81h2.32c0.45,0,0.81,0.36,0.81,0.81v0c0,0.72,0.86,1.07,1.37,0.57
				c1.19-1.16,2.74-1.86,4.73-1.86c2.76,0,4.73,1.11,5.9,2.85c0.32,0.47,0.97,0.5,1.32,0.05c1.36-1.75,3.29-2.91,5.84-2.91
				C185.67,17.7,188.16,20.81,188.16,25.15z"/>
		</g>
		<g>
			<path class="st0" d="M211.26,36.16v2.42c0,0.42-0.32,0.77-0.74,0.81c-0.42,0.03-0.86,0.05-1.26,0.05c-1.97,0-3.12-0.53-3.7-1.66
				c-0.25-0.48-0.87-0.64-1.25-0.25c-1.45,1.5-3.5,2.27-6.02,2.27c-4.54,0-7.53-2.21-7.53-6.26c0-3.4,2.05-5.98,7.94-6.55l3.11-0.33
				c2.05-0.25,3.15-0.94,3.15-2.66c0-1.97-1.02-3.03-4.34-3.03c-3.05,0-4.47,0.8-4.84,3.15c-0.06,0.38-0.4,0.66-0.79,0.66h-2.44
				c-0.49,0-0.87-0.44-0.8-0.93c0.53-3.73,3-6.15,8.88-6.15c6.06,0,8.35,2.54,8.35,6.22V35.1c0,0.66,0.33,1.06,1.15,1.06H211.26z
				 M204.95,30.96v-0.9c0-0.56-0.55-0.93-1.09-0.75c-0.44,0.14-0.95,0.24-1.53,0.3l-2.95,0.33c-3.4,0.41-4.42,1.6-4.42,3.48
				c0,1.92,1.27,3.19,3.93,3.19C201.88,36.61,204.95,34.93,204.95,30.96z"/>
		</g>
		<g>
			<path class="st0" d="M232.55,10.97v27.54c0,0.45-0.36,0.81-0.81,0.81h-2.32c-0.45,0-0.81-0.36-0.81-0.81v-0.15
				c0-0.69-0.82-1.08-1.32-0.62c-1.45,1.31-3.36,2.06-5.68,2.06c-5.9,0-9.66-4.3-9.66-11.06s3.77-11.06,9.66-11.06
				c2.23,0,4.1,0.68,5.53,1.92c0.51,0.44,1.31,0.05,1.31-0.63v-8.01c0-0.45,0.36-0.81,0.81-0.81h2.48
				C232.19,10.16,232.55,10.52,232.55,10.97z M228.58,28.75c0-4.83-2.42-7.53-6.18-7.53c-3.77,0-6.18,2.87-6.18,7.7
				c0,4.83,2.42,7.37,6.18,7.37C226.17,36.29,228.58,33.58,228.58,28.75z"/>
		</g>
	</g>
	<g>
		<path class="st2" d="M136.22,90.54c-0.37,0-0.73-0.14-1.01-0.39l-12.47-11.51H93.76c-0.82,0-1.49-0.67-1.49-1.49V10.16
			c0-0.82,0.67-1.49,1.49-1.49c0.82,0,1.49,0.67,1.49,1.49v65.5h28.07c0.37,0,0.73,0.14,1.01,0.39l10.4,9.6v-8.5
			c0-0.82,0.67-1.49,1.49-1.49h95.72c0.82,0,1.49,0.67,1.49,1.49s-0.67,1.49-1.49,1.49h-94.23v10.41c0,0.59-0.35,1.13-0.89,1.36
			C136.62,90.5,136.42,90.54,136.22,90.54z"/>
	</g>
</g>
</svg>
